<svg width="100" height="100" viewBox="0 0 48 46" fill="none" xmlns="http://www.w3.org/2000/svg">
<rect width="48" height="46" rx="23" fill="white"/>
<path d="M38.9812 20.0098H8.23796C7.61356 20.0098 7.15928 20.6023 7.32137 21.2053L11.6658 37.3666C11.7773 37.7812 12.1531 38.0694 12.5824 38.0694H34.8105C35.2434 38.0694 35.6214 37.7765 35.7295 37.3574L39.9002 21.1961C40.0552 20.5953 39.6016 20.0098 38.9812 20.0098Z" fill="#4D8733"/>
<path d="M10.8253 14.7932L13 19H34L36.3198 14.8177C36.6707 14.1851 36.2133 13.4082 35.4899 13.4082H11.6685C10.9573 13.4082 10.4988 14.1615 10.8253 14.7932Z" fill="#4D8733"/>
<path d="M15.6052 7.64717L17.5 12.5H29L31.4982 7.69341C31.6624 7.3775 31.4331 7 31.0771 7H16.0472C15.7132 7 15.4837 7.33598 15.6052 7.64717Z" fill="#4D8733"/>
<path d="M17.293 25.6426H30.1095" stroke="white" stroke-width="2.47597" stroke-linecap="round"/>
</svg>
