<svg width="46" height="41" viewBox="0 0 46 41" fill="none" xmlns="http://www.w3.org/2000/svg">
<rect width="46" height="41" fill="white"/>
<path d="M37.9812 17.0098H7.23796C6.61356 17.0098 6.15928 17.6023 6.32137 18.2053L10.6658 34.3666C10.7773 34.7812 11.1531 35.0694 11.5824 35.0694H33.8105C34.2434 35.0694 34.6214 34.7765 34.7295 34.3574L38.9002 18.1961C39.0552 17.5953 38.6016 17.0098 37.9812 17.0098Z" stroke="#4D8733" stroke-width="2.47597"/>
<path d="M9.88613 13.3211L9.42769 11.6019C9.26701 10.9994 9.72116 10.4082 10.3448 10.4082H34.8663C35.4899 10.4082 35.944 10.9994 35.7834 11.6019L35.3249 13.3211M14.7409 6.52446L14.4366 4.54672C14.3924 4.25925 14.6148 4 14.9056 4H30.3428C30.6204 4 30.8388 4.23729 30.8157 4.51397L30.6644 6.33027" stroke="#4D8733" stroke-width="2.47597" stroke-linecap="round"/>
<path d="M16.293 22.6426H29.1095" stroke="#4D8733" stroke-width="2.47597" stroke-linecap="round"/>
</svg>
