<svg width="113" height="89" viewBox="0 0 113 89" fill="none" xmlns="http://www.w3.org/2000/svg">
<path d="M109.849 37.1836H3.15774C1.59611 37.1836 0.486453 38.7038 0.962398 40.1911L16.0031 87.1937C16.3086 88.1484 17.1961 88.7962 18.1984 88.7962H95.4103C96.4226 88.7962 97.3164 88.1357 97.6136 87.1681L112.053 40.1655C112.508 38.6834 111.4 37.1836 109.849 37.1836Z" fill="#4D8733"/>
<path d="M13.7448 22.0975L21.9717 31.9388H93.4142L100.05 21.8892C101.062 20.3568 99.9627 18.3141 98.1263 18.3141H15.5133C13.5573 18.3141 12.4903 20.5969 13.7448 22.0975Z" fill="#4D8733"/>
<path d="M29.4811 1.75029L35.7251 12.0425H74.8484L83.0578 1.87659C83.6665 1.12283 83.13 0 82.1612 0H30.4664C29.5681 0 29.0151 0.982232 29.4811 1.75029Z" fill="#4D8733"/>
<path d="M35.0195 53.2734H78.6215" stroke="white" stroke-width="6.01307" stroke-linecap="round"/>
</svg>
