<svg width="132" height="132" viewBox="0 0 115 102" fill="none" xmlns="http://www.w3.org/2000/svg">
<rect width="114.143" height="102" rx="12.1429" fill="white"/>
<path d="M102.52 45.2227H11.0666C9.53192 45.2227 8.42582 46.6942 8.85239 48.1684L21.7805 92.8459C22.0658 93.8318 22.9684 94.5102 23.9947 94.5102H90.1091C91.1446 94.5102 92.0529 93.8198 92.33 92.8222L104.741 48.1446C105.149 46.6759 104.044 45.2227 102.52 45.2227Z" fill="#4D8733"/>
<path d="M19.043 30.6298L25.6287 42.4648H87.322L94.3521 30.6907C95.2695 29.1542 94.1625 27.204 92.3731 27.204H21.0572C19.299 27.204 18.1881 29.0934 19.043 30.6298Z" fill="#4D8733"/>
<path d="M33.2119 11.3139L38.8487 24.7252H72.6331L80.0713 11.4301C80.5011 10.6618 79.9458 9.71484 79.0655 9.71484H34.2743C33.4504 9.71484 32.8926 10.5543 33.2119 11.3139Z" fill="#4D8733"/>
<path d="M38.2402 60.5898H75.8922" stroke="white" stroke-width="6.01307" stroke-linecap="round"/>
</svg>
