<svg width="90" height="90" viewBox="0 0 90 90" fill="none" xmlns="http://www.w3.org/2000/svg">
<circle cx="45" cy="45" r="45" fill="#CFDDFA"/>
<path d="M32.3327 62.4135H57.666C58.5059 62.4135 59.3113 62.0456 59.9052 61.3907C60.4991 60.7358 60.8327 59.8475 60.8327 58.9214V30.9843C60.8327 30.0581 60.4991 29.1699 59.9052 28.515C59.3113 27.8601 58.5059 27.4922 57.666 27.4922H38.666C37.8262 27.4922 37.0207 27.8601 36.4268 28.515C35.833 29.1699 35.4993 30.0581 35.4993 30.9843V58.9214C35.4993 59.8475 35.1657 60.7358 34.5719 61.3907C33.978 62.0456 33.1725 62.4135 32.3327 62.4135ZM32.3327 62.4135C31.4928 62.4135 30.6874 62.0456 30.0935 61.3907C29.4996 60.7358 29.166 59.8475 29.166 58.9214V43.2068C29.166 41.2861 30.591 39.7146 32.3327 39.7146H35.4993" stroke="#6F95C6" stroke-width="3" stroke-linecap="round" stroke-linejoin="round"/>
<path d="M54.5007 48.4449H41.834" stroke="#6F95C6" stroke-width="3" stroke-linecap="round" stroke-linejoin="round"/>
<path d="M49.7507 55.4292H41.834" stroke="#6F95C6" stroke-width="3" stroke-linecap="round" stroke-linejoin="round"/>
<path d="M41.834 34.4764H54.5007V41.4607H41.834V34.4764Z" stroke="#6F95C6" stroke-width="3" stroke-linecap="round" stroke-linejoin="round"/>
</svg>
