<svg width="22" height="21" viewBox="0 0 22 21" fill="none" xmlns="http://www.w3.org/2000/svg">
<path d="M20.375 9.05859H1.74998C1.37171 9.05859 1.0965 9.41756 1.1947 9.78286L3.82667 19.5738C3.89418 19.8249 4.12188 19.9995 4.38195 19.9995H17.8483C18.1105 19.9995 18.3395 19.8221 18.405 19.5682L20.9317 9.77727C21.0256 9.41332 20.7508 9.05859 20.375 9.05859Z" stroke="#4D8733" stroke-width="1.5"/>
<path d="M3.35339 6.82369L3.07565 5.78218C2.97831 5.41714 3.25345 5.05902 3.63124 5.05902H18.487C18.8647 5.05902 19.1399 5.41714 19.0425 5.78218L18.7648 6.82369M6.2945 2.70613L6.11017 1.50797C6.08337 1.33382 6.21812 1.17676 6.39432 1.17676H15.7465C15.9147 1.17676 16.047 1.32052 16.033 1.48813L15.9413 2.58849" stroke="#4D8733" stroke-width="1.5" stroke-linecap="round"/>
<path d="M7.23438 12.4707H14.9989" stroke="#4D8733" stroke-width="1.5" stroke-linecap="round"/>
</svg>
