<svg width="1080" height="1066" viewBox="0 0 1080 1066" fill="none" xmlns="http://www.w3.org/2000/svg">
<path d="M907.161 951.351C907.161 951.684 736.176 951.928 525.311 951.928C314.445 951.928 143.438 951.684 143.438 951.351C143.438 951.018 314.379 950.774 525.311 950.774C736.242 950.774 907.161 951.041 907.161 951.351Z" fill="#263238"/>
<path d="M732.295 832.179C694.833 807.67 685.317 760.737 685.717 718.329C685.717 711.253 684.829 703.801 688.068 697.524C691.306 691.247 699.158 686.811 705.679 689.628C711.046 691.979 713.53 698.034 716.636 702.936C720.792 709.625 726.749 715.006 733.825 718.462C738.439 720.68 744.117 721.989 748.575 719.416C754.674 715.911 755.229 707.461 754.963 700.43L753.765 661.105C753.543 654.073 753.343 646.887 755.384 640.167C757.425 633.446 762.193 627.125 768.936 625.084C775.679 623.044 784.129 626.703 785.748 633.557C786.082 636.457 786.215 639.377 786.148 642.296C786.414 645.224 787.878 648.418 790.717 649.172C793.556 649.926 796.373 647.863 798.458 645.756C805.644 638.481 810.413 629.21 814.849 620.005C819.285 610.8 823.588 601.374 830.086 593.389C836.585 585.404 845.612 579.127 855.837 578.307C866.062 577.486 877.064 583.452 879.88 593.278C882.697 603.104 877.086 613.24 871.008 621.513C861.787 633.66 850.866 644.417 838.581 653.452C836.178 654.822 834.28 656.93 833.169 659.463C831.75 664.187 836.363 668.734 841.088 670.176C846.455 671.773 852.178 671.108 857.767 671.618C863.356 672.128 869.434 674.39 871.652 679.536C874.757 686.656 868.835 694.33 862.957 699.498C851.169 709.7 837.718 717.802 823.188 723.452C817.998 725.471 812.52 727.245 808.394 730.994C804.269 734.742 801.74 741.108 804.535 746.01C807.33 750.911 813.806 752.331 819.262 751.2C824.719 750.068 829.576 747.008 834.788 744.923C844.481 741.041 857.146 741.418 863.622 749.603C865.605 752.421 866.899 755.665 867.4 759.074C867.9 762.483 867.594 765.963 866.506 769.232C864.286 775.79 860.754 781.827 856.126 786.976C840.992 805.793 821.15 820.27 798.613 828.941C776.078 837.258 755.096 839.875 732.317 832.268" fill="#B4D33B"/>
<path d="M869.455 583.94L868.767 584.628L866.682 586.535C864.864 588.199 862.246 590.661 858.786 593.921C849.179 603.113 840.282 613.019 832.17 623.554C827.025 630.208 821.679 637.705 816.09 645.867C810.5 654.029 804.645 662.835 798.812 672.283C792.64 682.134 787.013 692.315 781.955 702.781C779.338 708.215 777.009 713.871 774.658 719.704L767.427 737.337C758.236 759.636 750.313 782.437 743.694 805.629C738.382 824.595 734.892 844.024 733.27 863.652C732.218 876.893 732.329 890.2 733.602 903.421C734.113 908.079 734.556 911.716 734.955 914.156C735.133 915.354 735.266 916.263 735.377 916.951C735.488 917.638 735.488 917.905 735.488 917.905C734.498 913.133 733.758 908.314 733.27 903.465C731.818 890.207 731.588 876.842 732.582 863.542C734.102 843.848 737.534 824.348 742.829 805.319C749.39 782.063 757.299 759.208 766.518 736.871L773.659 719.238C776.011 713.449 778.339 707.727 780.979 702.271C786.064 691.776 791.729 681.573 797.947 671.707C803.824 662.236 809.746 653.475 815.358 645.312C820.969 637.15 826.448 629.653 831.549 623.022C839.692 612.507 848.659 602.658 858.365 593.567C861.803 590.328 864.531 587.911 866.416 586.292L868.634 584.473L869.455 583.94Z" fill="#263238"/>
<path d="M781.247 702.248C780.934 701.27 780.697 700.269 780.537 699.254C780.116 697.302 779.628 694.485 779.051 691.003C777.875 684.017 776.611 674.324 775.214 663.633C773.816 652.942 772.375 643.294 771.088 636.352C770.445 632.869 769.891 630.075 769.469 628.145C769.196 627.152 769.025 626.134 768.959 625.106C769.341 626.056 769.645 627.035 769.868 628.034C770.401 629.942 771.066 632.736 771.82 636.196C773.306 643.117 774.881 652.787 776.256 663.5C777.631 674.213 778.829 683.684 779.761 690.892C780.226 694.242 780.626 697.014 780.914 699.188C781.126 700.194 781.238 701.22 781.247 702.248Z" fill="#263238"/>
<path d="M872.472 683.129C872.164 683.232 871.843 683.292 871.519 683.306L868.813 683.595C866.462 683.839 863.068 684.194 858.876 684.77C850.514 685.835 838.914 687.742 826.382 690.382C813.851 693.021 802.472 695.993 794.377 698.344C790.318 699.498 787.057 700.562 784.795 701.228L782.178 702.004C781.877 702.116 781.565 702.19 781.246 702.226C781.512 702.044 781.804 701.902 782.111 701.804L784.662 700.828C786.88 700.008 790.118 698.877 794.155 697.635C802.228 695.084 813.54 692.045 826.161 689.361C838.781 686.678 850.381 684.925 858.787 684.016C863.002 683.55 866.417 683.306 868.791 683.195L871.519 683.084C871.837 683.051 872.158 683.066 872.472 683.129Z" fill="#263238"/>
<path d="M743.806 803.656C743.547 803.321 743.331 802.956 743.162 802.569L741.543 799.308C740.146 796.492 738.216 792.366 735.887 787.243C731.229 776.973 725.241 762.601 718.831 746.653C712.421 730.706 706.543 716.311 702.063 705.997C699.845 700.94 698.026 696.792 696.717 693.776C696.118 692.423 695.653 691.314 695.276 690.449C695.1 690.068 694.952 689.675 694.832 689.273C695.09 689.608 695.306 689.973 695.475 690.36L697.094 693.599C698.492 696.438 700.421 700.563 702.75 705.687C707.408 715.956 713.397 730.329 719.807 746.276C726.217 762.223 732.094 776.596 736.575 786.932C738.793 791.989 740.589 796.137 741.92 799.153C742.519 800.506 742.985 801.615 743.362 802.48C743.542 802.859 743.69 803.252 743.806 803.656Z" fill="#263238"/>
<path d="M864.621 762.135C864.227 762.327 863.819 762.49 863.401 762.623L859.897 763.865L846.944 768.301C836.009 772.071 820.993 777.461 804.38 783.45C787.767 789.438 772.707 794.717 761.706 798.31C756.205 800.107 751.747 801.526 748.642 802.436L745.071 803.478C744.662 803.624 744.238 803.721 743.807 803.767C744.189 803.565 744.59 803.402 745.004 803.279L748.531 802.037L761.462 797.601C772.397 793.83 787.435 788.44 804.025 782.452C820.616 776.463 835.698 771.184 846.7 767.591C852.2 765.794 856.658 764.397 859.764 763.466L863.335 762.423C863.75 762.274 864.182 762.177 864.621 762.135Z" fill="#263238"/>
<path d="M533.717 417.856L528.971 951.352H740.302V425.131L533.717 417.856Z" fill="#455A64"/>
<path d="M540.35 506.51V581.301H640.448V510.059L540.35 506.51Z" fill="#263238"/>
<path d="M647.567 421.871L645.682 951.352H740.302V425.132L647.567 421.871Z" fill="#263238"/>
<path d="M540.35 424.444V499.235H640.448V427.971L540.35 424.444Z" fill="#263238"/>
<path d="M574.861 445.005V456.051H605.492V444.007L574.861 445.005Z" fill="#263238"/>
<path d="M606.49 465.344H574.861V469.868H606.49V465.344Z" fill="#263238"/>
<g opacity="0.4">
<path d="M574.861 445.005V456.051H605.492V444.007L574.861 445.005Z" fill="black"/>
<path d="M606.49 465.344H574.861V469.868H606.49V465.344Z" fill="black"/>
</g>
<path d="M540.35 686.501V761.27H640.448V690.028L540.35 686.501Z" fill="#263238"/>
<path d="M574.861 707.062V718.107H605.492V706.063L574.861 707.062Z" fill="#263238"/>
<path d="M606.49 727.4H574.861V731.925H606.49V727.4Z" fill="#263238"/>
<g opacity="0.4">
<path d="M574.861 707.062V718.107H605.492V706.063L574.861 707.062Z" fill="black"/>
<path d="M606.49 727.4H574.861V731.925H606.49V727.4Z" fill="black"/>
</g>
<path d="M540.35 770.784V845.553H640.448V774.311L540.35 770.784Z" fill="#263238"/>
<path d="M574.861 791.346V802.391H605.492V790.348L574.861 791.346Z" fill="#263238"/>
<path d="M606.49 811.685H574.861V816.209H606.49V811.685Z" fill="#263238"/>
<g opacity="0.4">
<path d="M574.861 791.346V802.391H605.492V790.348L574.861 791.346Z" fill="black"/>
<path d="M606.49 811.685H574.861V816.209H606.49V811.685Z" fill="black"/>
</g>
<path d="M539.285 855.068V929.837H639.383V858.595L539.285 855.068Z" fill="#263238"/>
<path d="M573.775 875.63V886.676H604.406V874.632L573.775 875.63Z" fill="#263238"/>
<path d="M605.404 895.969H573.775V900.493H605.404V895.969Z" fill="#263238"/>
<g opacity="0.4">
<path d="M573.775 875.63V886.676H604.406V874.632L573.775 875.63Z" fill="black"/>
<path d="M605.404 895.969H573.775V900.493H605.404V895.969Z" fill="black"/>
</g>
<path d="M538.442 594.676H438.344V669.467H538.442V594.676Z" fill="#455A64"/>
<path d="M473.521 628.367V638.747H502.311V627.436L473.521 628.367Z" fill="#263238"/>
<path d="M503.243 647.486H473.521V651.723H503.243V647.486Z" fill="#263238"/>
<g opacity="0.4">
<path d="M473.521 628.367V638.747H502.311V627.436L473.521 628.367Z" fill="black"/>
<path d="M503.243 647.486H473.521V651.723H503.243V647.486Z" fill="black"/>
</g>
<path d="M538.441 594.675L637.12 593.943L635.324 669.444H538.441V594.675Z" fill="#263238"/>
<path opacity="0.4" d="M538.441 594.675L637.12 593.943L635.324 669.444H538.441V594.675Z" fill="black"/>
<path d="M633.616 526.76H534.959V593.921H633.616V526.76Z" fill="#FAFAFA"/>
<path d="M511.028 537.474L515.996 594.543L633.55 593.944L626.586 538.117C626.343 536.379 625.424 534.807 624.028 533.744C622.633 532.68 620.873 532.211 619.133 532.439L571.69 536.564L563.617 530.576C562.879 530.06 561.985 529.817 561.088 529.888L514.244 534.013C513.364 534.059 512.536 534.446 511.935 535.092C511.335 535.738 511.01 536.592 511.028 537.474Z" fill="#263238"/>
<path d="M511.028 537.474L515.996 594.543L633.55 593.944L626.586 538.117C626.343 536.379 625.424 534.807 624.028 533.744C622.633 532.68 620.873 532.211 619.133 532.439L571.69 536.564L563.617 530.576C562.879 530.06 561.985 529.817 561.088 529.888L514.244 534.013C513.364 534.059 512.536 534.446 511.935 535.092C511.335 535.738 511.01 536.592 511.028 537.474Z" fill="#B4D33B"/>
<path d="M477.293 579.682L474.809 564.821L583.557 557.635L593.117 594.52L479.444 593.943L477.293 579.682Z" fill="#FAFAFA"/>
<path d="M463.407 572.451L465.337 594.631H581.649L578.898 573.05C578.656 571.316 577.74 569.748 576.349 568.685C574.958 567.622 573.204 567.151 571.468 567.372L524.025 571.497L515.929 565.509C515.202 564.99 514.314 564.746 513.423 564.821L466.579 568.969C465.698 569.015 464.871 569.406 464.277 570.058C463.684 570.71 463.371 571.57 463.407 572.451Z" fill="#B4D33B"/>
<path opacity="0.7" d="M463.407 572.451L465.337 594.631H581.649L578.898 573.05C578.656 571.316 577.74 569.748 576.349 568.685C574.958 567.622 573.204 567.151 571.468 567.372L524.025 571.497L515.929 565.509C515.202 564.99 514.314 564.746 513.423 564.821L466.579 568.969C465.698 569.015 464.871 569.406 464.277 570.058C463.684 570.71 463.371 571.57 463.407 572.451Z" fill="#FAFAFA"/>
<path d="M586.15 567.594H601.676C602.264 567.595 602.843 567.729 603.372 567.985C603.9 568.242 604.364 568.614 604.728 569.074C605.093 569.535 605.349 570.072 605.477 570.645C605.605 571.218 605.603 571.813 605.469 572.385L600.457 593.921H593.204L586.15 567.594Z" fill="#263238"/>
<path d="M789.609 270.47L720.607 285.264C720.023 285.385 719.421 285.388 718.837 285.272C718.252 285.156 717.697 284.924 717.204 284.588C716.711 284.253 716.291 283.822 715.969 283.32C715.647 282.819 715.429 282.258 715.328 281.67L706.012 235.092C705.754 233.911 705.972 232.674 706.62 231.653C707.268 230.631 708.293 229.906 709.472 229.636L778.452 214.798C779.036 214.676 779.638 214.673 780.222 214.789C780.807 214.905 781.362 215.138 781.855 215.473C782.348 215.808 782.768 216.24 783.09 216.741C783.412 217.242 783.63 217.803 783.731 218.391L793.069 264.969C793.322 266.156 793.103 267.395 792.456 268.422C791.81 269.45 790.788 270.184 789.609 270.47Z" fill="#B4D33B"/>
<path d="M751.437 244.674L761.994 248.334L753.655 255.986L745.315 263.638L743.097 252.326L740.879 241.015L751.437 244.674Z" fill="#FAFAFA"/>
<path d="M658.879 246.072L659.567 245.162C660.055 244.586 660.742 243.721 661.63 242.545C664.208 239.124 666.437 235.454 668.284 231.588C669.611 228.801 670.723 225.917 671.611 222.96C672.564 219.722 673.319 216.107 674.272 212.269C676.135 204.551 678.265 195.79 680.594 186.097C682.923 176.404 685.54 165.78 688.29 154.402C688.923 151.463 689.738 148.567 690.73 145.729C691.819 142.818 693.186 140.018 694.811 137.368C696.512 134.643 698.489 132.101 700.711 129.782C701.836 128.598 703.029 127.48 704.282 126.433H704.393C704.859 128.252 704.393 126.921 704.57 127.32H704.282L703.683 127.165L702.485 126.876L700.09 126.3L659.9 116.496L638.629 111.284L627.761 108.622L622.26 107.291H621.927H621.75C621.639 107.291 622.327 107.291 621.994 107.291L621.351 107.535L620.042 108.046C619.222 108.467 618.334 108.8 617.536 109.265C610.94 112.739 605.63 118.235 602.387 124.947C600.848 128.25 599.745 131.74 599.104 135.327C598.284 138.876 597.463 142.402 596.665 145.907C593.426 159.88 590.321 173.366 587.349 186.23L585.131 195.745C582.835 204.784 578.789 213.284 573.22 220.764C572.333 221.94 571.424 222.982 570.492 224.18L570.137 224.601L569.96 224.823C569.494 223.293 569.96 224.402 569.782 224.069H569.982L571.024 224.335L573.087 224.845L581.161 226.842L596.376 230.612L642.2 242.013L654.665 245.184L657.881 246.027L658.99 246.36L657.859 246.138L654.599 245.406L642.111 242.456L596.177 231.366L580.961 227.684L572.865 225.71L570.803 225.222L569.76 224.956H569.561C569.427 224.624 569.738 225.71 569.25 224.18L569.427 223.98L569.76 223.559C570.692 222.472 571.579 221.341 572.444 220.165C576.024 215.319 578.968 210.034 581.205 204.44C583.424 198.436 585.13 192.255 586.306 185.964C589.256 173.1 592.362 159.614 595.556 145.618C596.376 142.114 597.175 138.587 597.995 135.039C598.648 131.374 599.774 127.811 601.344 124.437C604.589 117.367 610.036 111.538 616.87 107.824C617.713 107.336 618.623 106.981 619.488 106.582L620.841 106.049L621.506 105.783H621.905H622.083H622.438L627.916 107.136L638.784 110.042L660.055 115.254L700.223 125.124L702.618 125.723L703.816 126.011L704.415 126.167H704.703C704.814 126.588 704.57 125.257 704.969 127.098H704.859C703.639 128.141 702.463 129.316 701.354 130.381C697.06 134.832 693.723 140.116 691.551 145.907C690.573 148.702 689.765 151.553 689.133 154.446L681.303 186.119L674.827 212.247C673.829 216.084 673.03 219.677 672.032 222.938C671.116 225.912 669.975 228.811 668.616 231.61C666.739 235.476 664.448 239.128 661.785 242.501C660.887 243.747 659.917 244.939 658.879 246.072Z" fill="#263238"/>
<path d="M673.585 150.942C672.744 150.935 671.907 150.808 671.101 150.565C669.526 150.254 667.242 149.766 664.447 149.145C658.836 147.881 651.139 146.062 642.578 143.889C634.016 141.715 626.386 139.453 620.864 137.9C618.091 137.079 615.873 136.37 614.343 135.86C613.529 135.662 612.746 135.356 612.014 134.95C612.849 135.027 613.674 135.191 614.476 135.438L621.13 137.124L642.888 142.758L664.691 148.347L671.345 150.143C672.117 150.333 672.868 150.601 673.585 150.942Z" fill="#263238"/>
<path d="M672.055 160.235C671.215 160.199 670.382 160.072 669.57 159.858C667.973 159.547 665.711 159.059 662.916 158.416C657.305 157.152 649.608 155.333 641.025 153.16C632.441 150.986 624.855 148.724 619.333 147.193C616.56 146.35 614.342 145.663 612.812 145.153C612.04 144.934 611.296 144.629 610.594 144.243C611.43 144.304 612.256 144.46 613.056 144.709L619.71 146.395L641.468 152.051L663.183 157.64L669.837 159.414C670.604 159.606 671.348 159.881 672.055 160.235Z" fill="#263238"/>
<path d="M669.835 169.507C668.995 169.501 668.159 169.382 667.351 169.152C665.754 168.841 663.492 168.331 660.697 167.71C655.086 166.446 647.389 164.627 638.806 162.453C630.222 160.28 622.636 158.128 617.114 156.465C614.341 155.644 612.123 154.957 610.593 154.446C609.787 154.224 609.007 153.919 608.264 153.537C609.101 153.583 609.929 153.74 610.726 154.003L617.38 155.689L639.138 161.322L660.963 166.912L667.617 168.708C668.38 168.903 669.123 169.171 669.835 169.507Z" fill="#263238"/>
<path d="M667.908 178.799C667.067 178.777 666.233 178.651 665.423 178.422C663.849 178.112 661.564 177.624 658.769 177.003C653.158 175.739 645.461 173.92 636.9 171.724C628.338 169.528 620.709 167.421 615.186 165.758C612.435 164.937 610.217 164.227 608.687 163.717C607.868 163.516 607.077 163.21 606.336 162.808C607.172 162.883 607.997 163.046 608.798 163.296L615.452 164.959L637.233 170.615L659.013 176.204L665.667 178.001C666.441 178.186 667.192 178.454 667.908 178.799Z" fill="#263238"/>
<path d="M664.913 188.093C664.074 188.057 663.241 187.93 662.429 187.716C660.832 187.405 658.569 186.917 655.775 186.274C650.163 185.01 642.467 183.191 633.883 181.018C625.299 178.844 617.714 176.582 612.191 175.029C609.419 174.208 607.201 173.521 605.67 173.011C604.847 172.818 604.051 172.527 603.297 172.146C604.134 172.192 604.962 172.348 605.759 172.611L612.413 174.297L634.171 179.953L655.974 185.52L662.628 187.317C663.418 187.482 664.186 187.743 664.913 188.093Z" fill="#263238"/>
<path d="M662.74 197.365C661.898 197.358 661.061 197.231 660.255 196.988C658.681 196.677 656.396 196.189 653.601 195.568C647.99 194.304 640.293 192.485 631.732 190.312C623.171 188.138 615.541 185.876 610.018 184.323C607.267 183.502 605.027 182.793 603.497 182.282C602.683 182.085 601.9 181.779 601.168 181.373C602.003 181.45 602.828 181.614 603.63 181.861L610.284 183.547L632.065 189.18L653.845 194.77L660.499 196.566C661.271 196.756 662.022 197.024 662.74 197.365Z" fill="#263238"/>
<path d="M659.988 206.99C659.148 206.985 658.312 206.865 657.504 206.635C655.929 206.325 653.645 205.837 650.85 205.194C645.238 203.929 637.542 202.111 628.958 199.937C620.375 197.763 612.789 195.501 607.266 193.948C604.516 193.128 602.276 192.44 600.745 191.93C599.974 191.712 599.23 191.407 598.527 191.021C599.365 191.067 600.193 191.223 600.989 191.486L607.643 193.172L629.402 198.828L651.205 204.395L657.859 206.192C658.593 206.388 659.306 206.656 659.988 206.99Z" fill="#263238"/>
<path d="M657.948 216.239C656.148 216.134 654.365 215.844 652.625 215.374C649.364 214.687 644.884 213.689 639.96 212.424C635.036 211.16 630.644 209.785 627.45 208.831C625.693 208.412 623.989 207.795 622.371 206.99C624.168 207.165 625.943 207.514 627.672 208.033C630.91 208.809 635.346 210.029 640.248 211.315C645.15 212.602 649.608 213.689 652.824 214.576C654.587 214.945 656.304 215.503 657.948 216.239Z" fill="#263238"/>
<path d="M515.065 435.843L439.276 465.609C433.28 428.807 421.529 393.179 404.453 360.032L451.031 340.07C455.282 338.247 459.861 337.314 464.486 337.328C469.112 337.343 473.685 338.304 477.924 340.154C482.164 342.003 485.979 344.702 489.136 348.082C492.293 351.463 494.723 355.454 496.278 359.81C505.21 384.42 511.507 409.906 515.065 435.843Z" fill="#FAFAFA"/>
<path d="M515.064 435.844C515.064 435.844 515.064 435.511 514.887 434.89C514.709 434.269 514.621 433.315 514.443 432.162C514.044 429.767 513.467 426.196 512.624 421.627C510.228 408.712 507.178 395.927 503.486 383.322C502.289 379.329 501.024 375.137 499.583 370.834C498.141 366.531 496.699 361.962 494.792 357.526C492.764 352.954 489.731 348.898 485.92 345.66C481.82 342.264 476.993 339.858 471.813 338.629C466.361 337.395 460.686 337.556 455.311 339.095C453.914 339.45 452.605 340.049 451.252 340.514L447.216 342.267L438.987 345.793L404.719 360.543L405.007 359.767C405.606 360.964 406.249 362.273 406.915 363.582C415.427 380.745 422.598 398.543 428.363 416.813C433.357 432.778 437.174 449.087 439.785 465.609L439.164 465.255L494.215 443.895L509.608 437.973L513.689 436.443C514.599 436.088 515.109 435.933 515.109 435.933C515.109 435.933 514.687 436.154 513.8 436.509L509.852 438.128L494.614 444.161L439.497 466.053L438.965 466.275V465.676C436.283 449.216 432.428 432.968 427.431 417.057C421.612 398.879 414.412 381.172 405.894 364.092L404.009 360.277L403.721 359.722L404.297 359.5L438.565 344.773L446.794 341.224L450.831 339.494C452.251 339.006 453.604 338.407 455.023 338.03C460.584 336.464 466.448 336.319 472.079 337.609C477.412 338.881 482.377 341.371 486.585 344.884C490.526 348.223 493.652 352.418 495.723 357.149C497.675 361.718 499.028 366.243 500.492 370.568C501.956 374.893 503.154 379.085 504.329 383.078C507.981 395.728 510.943 408.567 513.201 421.538C513.955 426.151 514.488 429.7 514.798 432.162C514.931 433.338 515.042 434.247 515.131 434.935C515.138 435.239 515.115 435.544 515.064 435.844Z" fill="#263238"/>
<path d="M453.559 339.028C453.559 339.028 464.87 362.228 463.872 363.049C462.874 363.869 491.952 352.203 492.307 351.959C492.396 352.025 477.269 331.841 453.559 339.028Z" fill="#263238"/>
<path d="M449.323 370.302C446.08 372.307 442.639 373.971 439.054 375.27C435.626 376.916 432.046 378.224 428.363 379.174C431.594 377.161 435.029 375.495 438.61 374.205C442.044 372.554 445.632 371.246 449.323 370.302Z" fill="#263238"/>
<path d="M486.94 366.975C487.074 367.263 474.786 373.23 459.504 380.283C444.222 387.336 431.712 392.814 431.579 392.526C431.446 392.238 443.734 386.294 459.016 379.218C474.298 372.143 486.807 366.686 486.94 366.975Z" fill="#263238"/>
<path d="M492.042 380.638C492.175 380.926 479.887 386.87 464.605 393.946C449.323 401.021 436.814 406.499 436.681 406.211C436.548 405.923 448.835 399.978 464.117 392.903C479.399 385.828 491.909 380.327 492.042 380.638Z" fill="#263238"/>
<path d="M497.253 394.19C497.386 394.478 485.098 400.422 469.816 407.498C454.534 414.573 442.025 420.029 441.892 419.741C441.759 419.453 454.046 413.508 469.328 406.433C484.61 399.358 497.12 393.946 497.253 394.19Z" fill="#263238"/>
<path d="M482.593 419.364C480.968 420.429 479.245 421.335 477.447 422.07C474.209 423.601 469.706 425.663 464.693 427.859C456.842 431.319 450.099 434.136 447.548 435.001L447.193 435.134V434.802C447.371 433.981 447.504 433.604 447.57 433.604C447.637 433.604 447.57 434.025 447.57 434.868L447.304 434.646C449.655 433.36 456.176 430.21 464.139 426.817C469.152 424.599 473.721 422.669 477.048 421.316C478.821 420.469 480.68 419.814 482.593 419.364Z" fill="#263238"/>
<path d="M833.658 433.87L749.529 397.495C758.38 390.191 765.309 380.832 769.713 370.236L794.266 311.281C796.596 305.904 800.23 301.191 804.838 297.57C809.446 293.95 814.884 291.534 820.661 290.543L898.69 324.345C890.248 329.245 883.601 336.724 879.726 345.682L851.713 410.293C847.702 419.504 841.505 427.597 833.658 433.87Z" fill="#B4D33B"/>
<path opacity="0.7" d="M833.658 433.87L749.529 397.495C758.38 390.191 765.309 380.832 769.713 370.236L794.266 311.281C796.596 305.904 800.23 301.191 804.838 297.57C809.446 293.95 814.884 291.534 820.661 290.543L898.69 324.345C890.248 329.245 883.601 336.724 879.726 345.682L851.713 410.293C847.702 419.504 841.505 427.597 833.658 433.87Z" fill="#FAFAFA"/>
<path d="M863.978 348.765C863.845 349.053 850.071 343.309 833.192 335.901C816.313 328.493 802.739 322.282 802.872 321.994C803.005 321.705 816.779 327.45 833.658 334.858C850.537 342.266 864.111 348.477 863.978 348.765Z" fill="#263238"/>
<path d="M860.584 360.365C860.451 360.654 846.211 354.687 828.755 347.057C811.3 339.428 797.282 332.973 797.415 332.685C797.548 332.397 811.788 338.341 829.221 345.993C846.655 353.645 860.584 360.077 860.584 360.365Z" fill="#263238"/>
<path d="M856.148 370.613C856.037 370.901 841.775 364.935 824.342 357.305C806.908 349.675 792.868 343.243 792.979 342.954C793.09 342.666 807.352 348.61 824.807 356.262C842.263 363.914 856.148 370.302 856.148 370.613Z" fill="#263238"/>
<path d="M851.556 380.859C851.423 381.148 837.184 375.181 819.728 367.551C802.272 359.921 788.255 353.489 788.388 353.179C788.521 352.868 802.76 358.857 820.194 366.487C837.627 374.116 851.712 380.637 851.556 380.859Z" fill="#263238"/>
<path d="M847.054 391.085C847.054 391.395 832.681 385.429 815.248 377.777C797.814 370.125 783.774 363.715 783.907 363.404C784.04 363.094 798.258 369.082 815.713 376.712C833.169 384.342 847.275 390.796 847.054 391.085Z" fill="#263238"/>
<path d="M812.21 388.024C810.492 387.646 808.824 387.066 807.242 386.294C804.226 385.096 800.1 383.366 795.575 381.37C791.051 379.374 786.97 377.533 784.042 376.136C782.406 375.489 780.851 374.655 779.406 373.651C781.118 374.055 782.783 374.635 784.375 375.381C787.391 376.601 791.517 378.331 796.041 380.305C800.566 382.279 804.647 384.165 807.575 385.562C809.204 386.214 810.758 387.039 812.21 388.024Z" fill="#263238"/>
<path d="M833.392 411.69C833.281 411.69 833.636 410.892 833.835 409.472C834.08 407.428 833.66 405.359 832.637 403.572C831.811 402.161 830.61 401.005 829.168 400.234C827.725 399.462 826.098 399.104 824.465 399.199C822.832 399.295 821.257 399.84 819.914 400.774C818.572 401.708 817.514 402.996 816.857 404.494C816.2 405.992 815.97 407.642 816.192 409.263C816.415 410.883 817.081 412.411 818.117 413.677C819.153 414.942 820.519 415.897 822.064 416.435C823.609 416.973 825.272 417.073 826.871 416.725C828.882 416.275 830.69 415.176 832.016 413.598C832.948 412.466 833.303 411.69 833.392 411.734C833.249 412.55 832.897 413.314 832.371 413.952C831.096 415.76 829.215 417.05 827.07 417.59C825.468 418.009 823.785 418.016 822.179 417.608C820.573 417.201 819.097 416.394 817.888 415.261C816.395 413.855 815.373 412.021 814.964 410.012C814.554 408.002 814.777 405.915 815.6 404.037C816.424 402.158 817.809 400.581 819.564 399.521C821.32 398.461 823.361 397.97 825.407 398.116C827.06 398.234 828.656 398.77 830.044 399.674C831.433 400.578 832.57 401.82 833.347 403.284C834.391 405.232 834.713 407.487 834.257 409.65C834.128 410.387 833.832 411.085 833.392 411.69Z" fill="#263238"/>
<path d="M832.326 321.147L807.947 310.466L806.407 313.98L830.786 324.662L832.326 321.147Z" fill="#263238"/>
<path d="M784.974 538.227L694.146 536.098L727.949 490.851H816.558L784.974 538.227Z" fill="#B4D33B"/>
<path d="M707.631 529.311L779.472 531.506L769.491 516.823L755.362 522.878L744.183 503.56L707.631 529.311Z" fill="#B4D33B"/>
<path d="M767.583 503.426C767.583 504.348 767.31 505.248 766.798 506.014C766.286 506.78 765.559 507.377 764.708 507.73C763.857 508.082 762.92 508.174 762.017 507.995C761.113 507.815 760.283 507.371 759.632 506.72C758.98 506.069 758.537 505.239 758.357 504.335C758.177 503.432 758.27 502.495 758.622 501.644C758.975 500.793 759.572 500.065 760.338 499.554C761.104 499.042 762.004 498.769 762.925 498.769C764.161 498.769 765.345 499.259 766.219 500.133C767.092 501.006 767.583 502.191 767.583 503.426Z" fill="#B4D33B"/>
<g opacity="0.7">
<path d="M707.631 529.311L779.472 531.506L769.491 516.823L755.362 522.878L744.183 503.56L707.631 529.311Z" fill="#FAFAFA"/>
<path d="M767.583 503.426C767.583 504.348 767.31 505.248 766.798 506.014C766.286 506.78 765.559 507.377 764.708 507.73C763.857 508.082 762.92 508.174 762.017 507.995C761.113 507.815 760.283 507.371 759.632 506.72C758.98 506.069 758.537 505.239 758.357 504.335C758.177 503.432 758.27 502.495 758.622 501.644C758.975 500.793 759.572 500.065 760.338 499.554C761.104 499.042 762.004 498.769 762.925 498.769C764.161 498.769 765.345 499.259 766.219 500.133C767.092 501.006 767.583 502.191 767.583 503.426Z" fill="#FAFAFA"/>
</g>
<path d="M538.641 272.266L458.638 307.798L456.73 246.848L536.645 209.075L538.641 272.266Z" fill="#B4D33B"/>
<path opacity="0.7" d="M538.641 272.266L458.638 307.798L456.73 246.848L536.645 209.075L538.641 272.266Z" fill="#FAFAFA"/>
<path d="M462.188 297.086L534.783 263.239L511.183 249.532L502.111 265.502L475.473 252.704L462.188 297.086Z" fill="#B4D33B"/>
<path d="M503.309 249.531C503.309 250.309 503.078 251.069 502.646 251.715C502.213 252.361 501.599 252.864 500.88 253.16C500.161 253.457 499.371 253.533 498.609 253.38C497.847 253.227 497.147 252.851 496.599 252.299C496.051 251.748 495.679 251.047 495.53 250.284C495.381 249.521 495.462 248.731 495.762 248.014C496.063 247.297 496.569 246.685 497.218 246.256C497.867 245.828 498.628 245.601 499.405 245.606C499.92 245.606 500.429 245.707 500.904 245.905C501.379 246.102 501.81 246.392 502.173 246.757C502.536 247.122 502.823 247.555 503.018 248.031C503.213 248.507 503.312 249.017 503.309 249.531Z" fill="#B4D33B"/>
<path d="M487.495 245.495C487.27 243.257 486.907 241.034 486.408 238.841C484.812 232.845 481.251 227.557 476.294 223.825C472.653 221.09 468.386 219.308 463.881 218.642C459.376 217.976 454.776 218.446 450.499 220.01C448.031 220.885 445.712 222.134 443.623 223.714C441.414 225.328 439.475 227.282 437.878 229.503C434.464 234.157 432.623 239.778 432.623 245.55C432.623 251.322 434.464 256.944 437.878 261.597C439.475 263.818 441.414 265.772 443.623 267.386C445.712 268.966 448.031 270.215 450.499 271.09C455.068 272.754 459.997 273.175 464.783 272.31C468.963 271.548 472.905 269.816 476.294 267.253C481.249 263.529 484.811 258.249 486.408 252.26C486.909 250.066 487.272 247.844 487.495 245.606C487.534 246.196 487.534 246.789 487.495 247.38C487.505 248.122 487.453 248.864 487.34 249.598C487.24 250.579 487.062 251.551 486.808 252.504C485.56 257.72 482.833 262.464 478.953 266.167C475.073 269.869 470.207 272.372 464.938 273.375C460.005 274.22 454.935 273.73 450.255 271.955C444.987 270.057 440.402 266.637 437.08 262.13C433.493 257.292 431.557 251.429 431.557 245.406C431.557 239.383 433.493 233.52 437.08 228.682C438.755 226.382 440.784 224.361 443.091 222.694C445.27 221.063 447.686 219.777 450.255 218.879C454.692 217.288 459.46 216.846 464.114 217.595C468.768 218.343 473.156 220.257 476.871 223.159C481.91 227.021 485.46 232.506 486.918 238.685C487.175 239.638 487.353 240.61 487.451 241.591C487.606 242.886 487.651 244.192 487.584 245.495H487.495Z" fill="#263238"/>
<path d="M441.383 265.989C441.605 266.233 433.398 273.841 423.084 282.979C412.771 292.117 404.209 299.348 404.009 299.126C403.81 298.905 411.994 291.275 422.308 282.114C432.622 272.954 441.205 265.745 441.383 265.989Z" fill="#263238"/>
<path d="M268.245 372.742C260.615 368.617 249.192 371.146 244.534 378.465C241.686 383.714 240.649 389.756 241.585 395.654C242.183 401.554 243.669 407.343 243.803 413.265C244.054 416.462 243.623 419.675 242.538 422.692C241.992 424.194 241.149 425.572 240.059 426.742C238.969 427.911 237.655 428.85 236.195 429.501C231.648 431.32 225.97 429.501 221.911 432.318C221.023 433.023 220.285 433.897 219.738 434.891C219.192 435.884 218.849 436.976 218.729 438.103C218.61 439.231 218.716 440.37 219.041 441.456C219.366 442.542 219.905 443.553 220.624 444.428C222.193 446.117 224.27 447.248 226.54 447.649C228.81 448.049 231.149 447.697 233.201 446.646C228.92 450.616 229.718 458.269 234.043 462.172C236.324 464.007 239.063 465.183 241.963 465.574C244.864 465.965 247.816 465.555 250.501 464.39C255.848 461.972 260.401 458.089 263.631 453.189C271.96 441.155 276.304 426.811 276.052 412.178C276.063 398.502 273.08 384.989 267.313 372.587" fill="#263238"/>
<path d="M517.35 502.185C514.799 498.059 497.099 507.929 495.525 508.639C493.95 509.349 492.885 507.131 494.327 506.554C496.39 505.733 517.971 496.462 515.487 492.403C514.112 490.185 510.274 492.98 510.274 492.98C510.274 492.98 490.734 503.138 489.625 501.164C488.516 499.19 499.783 492.825 503.731 490.962C507.679 489.098 508.345 486.526 506.082 485.461C504.552 484.729 492.309 490.185 488.449 492.115C484.59 494.045 474.077 499.59 477.049 492.647C480.021 485.705 479.688 479.339 478.38 477.587C478.043 477.224 477.6 476.977 477.115 476.881C476.629 476.785 476.126 476.844 475.676 477.05C475.226 477.257 474.853 477.6 474.61 478.031C474.366 478.462 474.265 478.958 474.321 479.45C474.126 481.99 473.581 484.49 472.701 486.88C472.08 488.826 471.127 490.649 469.885 492.27C468.421 494.178 467.112 495.708 465.959 496.994C454.691 500.943 422.508 510.924 392.432 508.084C391.345 507.974 389.77 505.866 387.996 502.517L347.207 515.648C348.737 518.797 350.401 522.302 352.198 525.784C374.954 571.253 480.442 524.076 480.442 524.076V523.965C488.349 522.453 496.168 520.513 503.864 518.154C514.422 514.361 514.089 513.408 513.446 512.254C511.694 509.149 494.615 518.243 497.144 514.162C499.672 510.081 519.324 505.356 517.35 502.185Z" fill="#EB996E"/>
<path d="M373.846 521.992L447.705 493.202L493.285 520.084L412.528 548.918L373.846 521.992Z" fill="#263238"/>
<path d="M449.789 494.444L456.82 492.559C470.105 500.132 482.36 509.383 493.284 520.084L491.221 518.864L449.789 494.444Z" fill="#FAFAFA"/>
<path d="M493.284 520.084C491.406 518.84 489.627 517.454 487.961 515.937C484.701 513.297 480.154 509.704 475.03 505.889C469.907 502.074 465.16 498.747 461.722 496.418C459.772 495.246 457.905 493.941 456.133 492.515C458.25 493.36 460.266 494.438 462.144 495.731C466.828 498.575 471.366 501.655 475.74 504.958C480.886 508.795 485.366 512.521 488.516 515.316C490.259 516.744 491.856 518.341 493.284 520.084Z" fill="#263238"/>
<path d="M360.804 585.182L357.588 518.642L357.344 515.847L392.588 499.545L381.365 472.064C368.988 425.686 324.806 424.998 324.806 424.998L291.114 421.693L275.921 424.998C275.921 424.998 247.774 429.856 246.71 469.979C246.2 494.427 251.411 518.656 261.925 540.733L272.239 535.344C272.208 541.875 270.223 548.249 266.539 553.642C262.202 559.935 259.121 567.007 257.467 574.469L360.804 585.182Z" fill="#B4D33B"/>
<path d="M284.037 461.418C284.215 461.418 284.481 464.701 285.257 469.979C287.285 483.732 291.469 497.078 297.656 509.526C300.029 514.295 301.693 517.156 301.538 517.245C300.996 516.682 300.533 516.047 300.162 515.36C299.32 514.118 298.21 512.255 296.924 509.903C290.267 497.549 286.036 484.035 284.459 470.09C284.148 467.429 283.993 465.255 283.971 463.747C283.88 462.971 283.902 462.187 284.037 461.418Z" fill="#263238"/>
<path d="M352.907 502.362C355.264 501.344 357.374 499.831 359.096 497.926C360.858 495.827 361.817 493.17 361.802 490.43C361.82 488.773 361.423 487.138 360.648 485.674C359.874 484.21 358.745 482.962 357.366 482.046C356.325 481.346 355.155 480.862 353.925 480.622C352.694 480.382 351.428 480.391 350.201 480.648L349.647 480.781L349.536 480.227C348.449 474.881 347.562 470.268 346.963 466.919C346.574 465.189 346.322 463.431 346.209 461.662C346.841 463.316 347.323 465.024 347.651 466.764C348.427 470.002 349.447 474.593 350.623 479.916L349.935 479.495C351.308 479.182 352.73 479.153 354.114 479.409C355.498 479.664 356.816 480.199 357.987 480.981C359.507 482.013 360.744 483.411 361.581 485.047C362.418 486.683 362.83 488.504 362.777 490.341C362.754 493.321 361.633 496.187 359.628 498.392C358.3 499.841 356.673 500.984 354.859 501.741C354.261 502.086 353.595 502.298 352.907 502.362Z" fill="#263238"/>
<path d="M358.562 529.91C357.516 525.291 356.915 520.582 356.765 515.848C356.166 508.063 355.19 501.83 355.501 501.764C356.934 506.291 357.748 510.991 357.919 515.737C358.441 520.442 358.655 525.177 358.562 529.91Z" fill="#263238"/>
<path d="M392.699 499.812C391.175 500.949 389.531 501.915 387.797 502.695C384.692 504.314 380.344 506.466 375.443 508.661C370.541 510.857 366.083 512.698 362.8 513.94C361.076 514.733 359.268 515.328 357.41 515.715C359.014 514.703 360.715 513.855 362.489 513.186L374.977 507.597L387.442 501.963C389.125 501.087 390.884 500.367 392.699 499.812Z" fill="#263238"/>
<path d="M261.347 468.205C260.96 466.161 260.96 464.062 261.347 462.017C261.326 459.929 261.687 457.854 262.412 455.896C262.8 457.947 262.8 460.054 262.412 462.106C262.432 464.187 262.071 466.254 261.347 468.205Z" fill="#FAFAFA"/>
<path d="M264.653 481.957C262.93 481.869 261.248 481.399 259.729 480.582C258.096 480.099 256.584 479.275 255.293 478.164C257.023 478.236 258.714 478.698 260.239 479.517C262.768 480.56 264.786 481.646 264.653 481.957Z" fill="#FAFAFA"/>
<path d="M276.985 475.392C276.328 473.962 276.164 472.355 276.519 470.823C276.786 468.272 277.651 466.387 277.939 466.387C278.091 467.87 278.001 469.368 277.673 470.823C277.679 472.372 277.447 473.913 276.985 475.392Z" fill="#FAFAFA"/>
<path d="M275.033 498.303C274.681 496.523 274.997 494.676 275.92 493.113C277.14 490.407 279.07 488.855 279.269 489.077C279.469 489.298 278.094 491.095 277.051 493.513C276.009 495.93 275.321 498.326 275.033 498.303Z" fill="#FAFAFA"/>
<path d="M270.597 510.924C268.862 510.19 267.217 509.26 265.695 508.151C263.033 506.554 260.771 505.445 260.904 505.135C262.844 505.305 264.7 506.003 266.272 507.153C269.066 508.772 270.863 510.702 270.597 510.924Z" fill="#FAFAFA"/>
<path d="M289.294 508.329C288.892 510.263 288.275 512.145 287.453 513.941C286.98 515.855 286.288 517.708 285.39 519.463C285.169 517.445 285.507 515.404 286.366 513.564C286.857 511.589 287.868 509.781 289.294 508.329Z" fill="#FAFAFA"/>
<path d="M270.597 525.008C269.03 525.142 267.454 524.891 266.006 524.276C263.544 523.567 261.57 522.746 261.725 522.435C263.293 522.302 264.869 522.553 266.317 523.167C268.823 523.877 270.73 524.809 270.597 525.008Z" fill="#FAFAFA"/>
<path d="M286.745 445.359C285.305 446.647 283.624 447.634 281.799 448.265C280.133 449.232 278.295 449.865 276.387 450.128C279.48 447.852 283.004 446.23 286.745 445.359Z" fill="#FAFAFA"/>
<path d="M272.993 429.878C273.237 430.122 271.418 432.096 269.422 434.757C268.356 436.471 267.107 438.062 265.695 439.504C266.126 437.465 267.099 435.58 268.512 434.048C270.597 431.32 272.815 429.634 272.993 429.878Z" fill="#FAFAFA"/>
<path d="M308.502 465.055C306.453 464.366 304.608 463.177 303.135 461.595C301.416 460.281 300.064 458.548 299.209 456.561C300.909 457.793 302.484 459.19 303.911 460.73C306.44 463.059 308.68 464.767 308.502 465.055Z" fill="#FAFAFA"/>
<path d="M329.684 443.873C328.698 445.854 327.477 447.709 326.046 449.396C324.964 451.274 323.653 453.01 322.143 454.564C322.678 452.419 323.694 450.425 325.115 448.731C327.266 445.648 329.462 443.651 329.684 443.873Z" fill="#FAFAFA"/>
<path d="M316.22 483.687C312.631 484.456 308.919 484.456 305.33 483.687C308.919 482.918 312.631 482.918 316.22 483.687Z" fill="#FAFAFA"/>
<path d="M336.249 476.012C335.175 474.218 334.622 472.159 334.652 470.068C334.31 468.009 334.556 465.895 335.362 463.969C335.703 465.953 335.852 467.966 335.805 469.98C336.156 471.97 336.304 473.992 336.249 476.012Z" fill="#FAFAFA"/>
<path d="M341.44 502.008C339.412 501.556 337.481 500.744 335.739 499.612C333.833 498.802 332.089 497.652 330.594 496.219C332.624 496.652 334.556 497.457 336.294 498.592C338.209 499.396 339.955 500.555 341.44 502.008Z" fill="#FAFAFA"/>
<path d="M355.724 488.811C355.879 489.099 354.593 490.075 352.863 491.029C351.133 491.982 349.58 492.515 349.425 492.226C349.27 491.938 350.556 490.962 352.308 490.008C354.06 489.055 355.591 488.522 355.724 488.811Z" fill="#FAFAFA"/>
<path d="M310.742 513.187C310.676 510.877 311.195 508.588 312.25 506.533C312.964 504.347 314.241 502.388 315.954 500.854C315.236 502.961 314.353 505.008 313.315 506.976C312.638 509.117 311.777 511.194 310.742 513.187Z" fill="#FAFAFA"/>
<path d="M334.254 524.365C332.509 522.397 331.262 520.039 330.617 517.489C329.607 515.057 329.204 512.416 329.441 509.793C330.314 512.198 331.054 514.649 331.659 517.135C332.653 519.496 333.52 521.91 334.254 524.365Z" fill="#FAFAFA"/>
<path d="M350.621 516.38C350.888 516.579 350.045 517.977 349.379 519.796C348.714 521.614 348.426 523.211 348.093 523.211C347.76 523.211 347.538 521.437 348.293 519.396C349.047 517.356 350.444 516.158 350.621 516.38Z" fill="#FAFAFA"/>
<path d="M374.977 496.928C371.83 498.875 368.308 500.137 364.641 500.632C366.116 499.503 367.807 498.688 369.609 498.236C371.292 497.445 373.118 497 374.977 496.928Z" fill="#FAFAFA"/>
<path d="M373.845 482.666C373.462 480.718 373.647 478.701 374.377 476.855C374.733 474.87 375.667 473.033 377.061 471.576C376.693 473.451 376.143 475.286 375.42 477.055C375.091 478.975 374.563 480.855 373.845 482.666Z" fill="#FAFAFA"/>
<path d="M366.947 470.511C364.987 471.06 362.938 471.211 360.919 470.956C358.9 470.701 356.953 470.044 355.191 469.025C357.169 469.121 359.135 469.381 361.069 469.802C363.045 469.865 365.012 470.103 366.947 470.511Z" fill="#FAFAFA"/>
<path d="M358.918 456.206C359.395 454.396 360.408 452.772 361.824 451.548C363.908 449.33 366.126 448.11 366.26 448.376C366.393 448.642 364.64 450.195 362.644 452.346C360.648 454.498 359.317 456.383 358.918 456.206Z" fill="#FAFAFA"/>
<path d="M343.924 445.604C342.391 442.388 341.581 438.875 341.551 435.312C343.084 438.529 343.894 442.041 343.924 445.604Z" fill="#FAFAFA"/>
<path d="M270.596 557.014C270.773 557.257 269.975 558.233 268.799 559.232C267.624 560.23 266.581 560.74 266.293 560.496C266.005 560.252 266.892 559.276 268.067 558.278C269.243 557.28 270.463 556.77 270.596 557.014Z" fill="#FAFAFA"/>
<path d="M355.745 570.277C353.56 570.749 351.31 570.847 349.091 570.566C346.839 570.648 344.59 570.348 342.438 569.678C346.927 569.122 351.478 569.325 355.901 570.277H355.745Z" fill="#FAFAFA"/>
<path d="M302.115 516.602C302.27 516.89 293.243 522.524 281.798 529.2C270.353 535.876 261.06 541.044 260.904 540.778C260.749 540.512 269.776 534.878 281.221 528.202C292.666 521.526 301.937 516.335 302.115 516.602Z" fill="#263238"/>
<path d="M258.776 569.789C257.711 569.789 245.956 604.479 257.201 627.457C258.332 629.675 262.258 634.954 267.16 642.473C290.449 678.205 349.492 758.23 351.266 770.54C353.484 785.445 391.523 941.326 391.523 941.326H422.575L396.469 763.465L357.565 594.742L258.776 569.789Z" fill="#FFBE9D"/>
<path d="M358.828 805.186C361.025 803.17 362.747 800.692 363.871 797.931C364.994 795.169 365.492 792.193 365.327 789.216C365.061 778.526 358.806 753.019 358.806 753.019L348.803 759.14C348.803 759.14 356.677 780.078 357.054 786.643C357.497 793.985 356.122 796.38 356.122 796.38L358.828 805.186Z" fill="#EB996E"/>
<path d="M277.806 656.402L310.654 778.392L208.027 885.1L229.608 910.74C229.608 910.74 355.68 807.382 357.964 792.521C360.581 775.553 329.84 655.005 329.84 655.005L277.806 656.402Z" fill="#FFBE9D"/>
<path d="M235.663 907.591L212.618 880.332L206.541 886.077L214.326 896.656C219.694 903.71 238.17 927.11 243.382 930.459C249.193 934.185 235.663 907.591 235.663 907.591Z" fill="#B4D33B"/>
<path d="M245.067 930.015C245.289 929.816 236.927 919.746 226.392 907.503C215.856 895.259 207.095 885.522 206.873 885.722C206.652 885.921 215.014 895.991 225.549 908.234C236.085 920.478 244.846 930.215 245.067 930.015Z" fill="#263238"/>
<path d="M212.685 892.819C212.818 892.819 213.107 892.265 213.439 891.267C213.859 889.919 214.032 888.506 213.949 887.097C213.861 885.63 213.274 884.237 212.286 883.149C211.488 882.35 210.778 882.173 210.733 882.284C210.689 882.395 211.155 882.838 211.687 883.637C212.359 884.708 212.762 885.925 212.863 887.186C212.919 888.498 212.852 889.812 212.663 891.111C212.552 892.132 212.53 892.797 212.685 892.819Z" fill="#263238"/>
<path d="M236.661 909.721C236.661 910.053 235.485 910.075 234.155 910.053C232.824 910.031 231.737 909.942 231.693 909.632C231.648 909.321 232.735 908.856 234.177 908.878C235.619 908.9 236.728 909.41 236.661 909.721Z" fill="#263238"/>
<path d="M237.97 912.271C237.97 912.604 236.861 912.825 235.574 912.803C234.288 912.781 233.356 912.471 233.223 912.138C233.09 911.805 234.266 911.583 235.619 911.628C236.972 911.672 237.992 911.96 237.97 912.271Z" fill="#263238"/>
<path d="M238.99 914.533C238.99 914.866 238.17 915.132 237.172 915.287C236.174 915.443 235.309 915.421 235.22 915.11C235.131 914.799 235.907 914.312 236.994 914.156C238.081 914.001 238.99 914.223 238.99 914.533Z" fill="#263238"/>
<path d="M236.418 909.942C236.686 908.72 237.241 907.58 238.037 906.615C238.807 905.468 239.785 904.475 240.92 903.687C241.603 903.213 242.35 902.839 243.138 902.578C243.591 902.434 244.061 902.352 244.536 902.334C244.828 902.332 245.117 902.388 245.387 902.499C245.657 902.609 245.903 902.772 246.11 902.977C246.433 903.454 246.558 904.037 246.459 904.604C246.36 905.171 246.044 905.678 245.578 906.016C244.934 906.517 244.243 906.956 243.515 907.325C242.324 907.961 241.076 908.488 239.789 908.899C238.649 909.391 237.416 909.633 236.174 909.609C237.228 908.999 238.343 908.501 239.501 908.123C240.696 907.619 241.859 907.041 242.983 906.393C243.622 906.018 244.237 905.603 244.824 905.151C245.356 904.73 245.512 904.042 245.245 903.754C244.979 903.465 244.203 903.443 243.471 903.754C242.777 903.97 242.113 904.276 241.497 904.663C240.442 905.368 239.5 906.228 238.702 907.214C237.327 908.833 236.573 910.031 236.418 909.942Z" fill="#263238"/>
<path d="M236.662 909.299C237.794 908.74 239.037 908.445 240.3 908.434C241.675 908.294 243.062 908.339 244.425 908.567C245.248 908.699 246.053 908.929 246.821 909.254C247.262 909.406 247.674 909.631 248.04 909.92C248.293 910.091 248.493 910.329 248.617 910.607C248.705 910.779 248.75 910.969 248.75 911.162C248.75 911.355 248.705 911.545 248.617 911.716C248.328 912.149 247.944 912.509 247.494 912.771C247.044 913.032 246.541 913.187 246.022 913.225C245.179 913.381 244.314 913.381 243.471 913.225C242.117 912.945 240.805 912.49 239.568 911.872C237.35 910.851 236.551 909.543 236.684 909.454C237.721 910.074 238.795 910.63 239.9 911.118C241.117 911.58 242.371 911.937 243.649 912.182C244.384 912.286 245.131 912.286 245.867 912.182C246.53 912.115 247.145 911.807 247.597 911.317C247.819 911.317 247.109 910.607 246.399 910.363C245.685 910.06 244.942 909.83 244.181 909.676C242.904 909.417 241.602 909.298 240.3 909.321C239.089 909.42 237.872 909.412 236.662 909.299Z" fill="#263238"/>
<path d="M235.219 907.037C234.909 907.281 229.275 901.714 223.087 894.306C216.898 886.897 212.329 880.554 212.64 880.332C212.95 880.11 218.03 886.077 224.218 893.463C230.406 900.849 235.53 906.793 235.219 907.037Z" fill="#263238"/>
<path d="M423.771 941.349L391.078 940.994L391.455 951.263H393.673C403.166 951.419 441.937 951.397 448.192 949.378C455.09 947.16 423.771 941.349 423.771 941.349Z" fill="#B4D33B"/>
<path d="M448.857 947.825C448.857 947.515 435.992 947.826 420.156 948.469C404.319 949.112 391.521 949.933 391.521 950.221C391.521 950.509 404.386 950.221 420.222 949.578C436.059 948.935 448.857 948.114 448.857 947.825Z" fill="#263238"/>
<path d="M401.859 949.688C401.992 949.577 401.681 949.001 401.038 948.114C400.187 946.931 399.118 945.922 397.888 945.141C396.569 944.3 395.014 943.903 393.452 944.01C392.255 944.121 391.634 944.587 391.7 944.698C391.767 944.809 392.432 944.698 393.475 944.698C394.813 944.818 396.105 945.251 397.245 945.962C398.382 946.707 399.438 947.57 400.395 948.535C401.193 949.356 401.725 949.777 401.859 949.688Z" fill="#263238"/>
<path d="M426.213 941.793C426.434 942.059 425.725 942.924 424.838 944.011C423.95 945.098 423.152 945.852 422.841 945.696C422.531 945.541 422.841 944.388 423.884 943.257C424.926 942.125 426.013 941.637 426.213 941.793Z" fill="#263238"/>
<path d="M429.229 942.436C429.473 942.657 428.963 943.633 428.098 944.654C427.233 945.674 426.279 946.273 425.991 946.095C425.702 945.918 426.212 944.942 427.144 943.877C428.076 942.813 428.985 942.214 429.229 942.436Z" fill="#263238"/>
<path d="M431.801 943.035C432.09 943.212 431.801 944.033 431.247 944.92C430.692 945.807 430.116 946.473 429.805 946.339C429.495 946.206 429.583 945.297 430.16 944.343C430.737 943.39 431.535 942.835 431.801 943.035Z" fill="#263238"/>
<path d="M426.235 942.214C425.42 941.25 424.835 940.112 424.527 938.887C424.085 937.574 423.89 936.19 423.95 934.806C424.012 933.97 424.199 933.147 424.505 932.366C424.678 931.919 424.917 931.5 425.214 931.124C425.407 930.879 425.648 930.678 425.923 930.533C426.198 930.388 426.501 930.302 426.811 930.281C427.4 930.281 427.964 930.515 428.38 930.931C428.796 931.347 429.029 931.911 429.029 932.499C429.016 933.319 428.927 934.136 428.763 934.939C428.505 936.272 428.127 937.579 427.632 938.843C427.279 940.054 426.665 941.175 425.835 942.125C425.999 940.906 426.32 939.713 426.789 938.577C427.152 937.332 427.434 936.065 427.632 934.784C427.745 934.05 427.805 933.308 427.809 932.566C427.809 931.9 427.322 931.346 426.9 931.39C426.479 931.435 425.969 931.989 425.68 932.721C425.393 933.392 425.206 934.102 425.126 934.828C425.009 936.092 425.107 937.367 425.414 938.599C425.819 939.77 426.094 940.983 426.235 942.214Z" fill="#263238"/>
<path d="M425.857 941.637C426.144 940.382 426.722 939.212 427.543 938.221C428.325 937.081 429.249 936.045 430.293 935.138C430.982 934.583 431.725 934.1 432.511 933.696C432.951 933.451 433.421 933.265 433.909 933.142C434.222 933.062 434.55 933.062 434.862 933.142C435.06 933.176 435.248 933.254 435.413 933.369C435.578 933.484 435.716 933.633 435.816 933.807C435.986 934.306 436.035 934.837 435.957 935.358C435.88 935.879 435.68 936.374 435.373 936.802C434.896 937.541 434.305 938.2 433.62 938.753C432.467 939.632 431.217 940.376 429.894 940.971C428.712 941.69 427.313 941.965 425.946 941.748C427.165 941.334 428.351 940.829 429.495 940.239C430.681 939.612 431.803 938.869 432.844 938.021C433.412 937.532 433.898 936.955 434.286 936.314C434.478 936.043 434.615 935.737 434.687 935.414C434.76 935.09 434.766 934.755 434.707 934.428C434.707 934.206 433.776 934.428 433.11 934.783C432.403 935.134 431.734 935.558 431.114 936.047C430.058 936.884 429.092 937.828 428.231 938.864C427.518 939.853 426.724 940.78 425.857 941.637Z" fill="#263238"/>
<path d="M422.995 941.349C417.798 942.122 412.54 942.397 407.291 942.169C402.041 942.33 396.787 942.033 391.588 941.282C396.812 940.865 402.056 940.776 407.291 941.016C412.528 940.855 417.77 940.966 422.995 941.349Z" fill="#263238"/>
<path d="M326.046 423.845C325.891 416.858 325.803 410.537 325.803 410.537C325.803 410.537 339.488 409.095 340.308 395.543C341.129 381.991 340.308 350.695 340.308 350.695L315.4 338.519L288.008 359.279L289.605 424.599C289.732 429.346 291.706 433.855 295.106 437.169C298.507 440.483 303.066 442.339 307.815 442.343C310.231 442.343 312.624 441.863 314.854 440.93C317.083 439.997 319.105 438.631 320.801 436.909C322.498 435.188 323.835 433.147 324.736 430.904C325.636 428.661 326.082 426.262 326.046 423.845Z" fill="#FFBE9D"/>
<path d="M289.826 369.815C289.826 369.815 312.206 367.597 316.154 347.413L340.552 369.815C342.586 364.934 343.094 359.552 342.009 354.378C340.924 349.203 338.297 344.478 334.475 340.825C321.011 326.852 311.785 329.735 306.506 329.735C301.604 329.735 276.74 335.014 269.332 363.294C268.8 365.356 268.356 370.436 268.023 372.742L289.826 369.815Z" fill="#263238"/>
<path d="M337.337 373.586C337.337 373.928 337.236 374.262 337.045 374.547C336.855 374.831 336.585 375.053 336.269 375.184C335.953 375.315 335.605 375.349 335.27 375.282C334.934 375.216 334.626 375.051 334.384 374.809C334.142 374.567 333.977 374.259 333.91 373.923C333.843 373.587 333.878 373.24 334.009 372.923C334.14 372.607 334.361 372.337 334.646 372.147C334.93 371.957 335.265 371.855 335.607 371.855C336.066 371.855 336.506 372.038 336.83 372.362C337.155 372.687 337.337 373.127 337.337 373.586Z" fill="#263238"/>
<path d="M339.022 371.767C338.8 371.988 337.513 370.902 335.65 370.791C333.787 370.68 332.368 371.589 332.19 371.345C332.013 371.101 332.323 370.813 332.922 370.391C333.753 369.857 334.731 369.601 335.717 369.66C336.702 369.718 337.643 370.091 338.401 370.724C338.955 371.146 339.133 371.589 339.022 371.767Z" fill="#263238"/>
<path d="M317.175 373.586C317.175 373.928 317.073 374.262 316.883 374.547C316.693 374.831 316.423 375.053 316.107 375.184C315.791 375.315 315.443 375.349 315.107 375.282C314.772 375.216 314.464 375.051 314.222 374.809C313.98 374.567 313.815 374.259 313.748 373.923C313.681 373.587 313.716 373.24 313.847 372.923C313.977 372.607 314.199 372.337 314.484 372.147C314.768 371.957 315.103 371.855 315.445 371.855C315.904 371.855 316.344 372.038 316.668 372.362C316.993 372.687 317.175 373.127 317.175 373.586Z" fill="#263238"/>
<path d="M318.306 371.767C318.084 371.988 316.798 370.902 314.935 370.791C313.072 370.68 311.652 371.589 311.452 371.345C311.253 371.101 311.608 370.813 312.206 370.391C313.036 369.856 314.015 369.6 315 369.66C315.986 369.72 316.926 370.093 317.685 370.724C318.239 371.146 318.417 371.589 318.306 371.767Z" fill="#263238"/>
<path d="M325.048 387.47C326.05 387.226 327.078 387.1 328.109 387.093C328.575 387.093 329.041 387.093 329.152 386.65C329.209 386.132 329.116 385.608 328.885 385.141L327.599 381.26C326.712 378.51 325.958 376.003 325.381 374.184C325.039 373.208 324.808 372.196 324.693 371.168C325.264 372.045 325.718 372.992 326.046 373.985C326.69 375.781 327.532 378.266 328.42 381.016C328.863 382.369 329.262 383.677 329.662 384.897C329.935 385.511 329.997 386.197 329.839 386.849C329.774 387.021 329.666 387.174 329.527 387.294C329.387 387.414 329.22 387.497 329.041 387.537C328.775 387.566 328.508 387.566 328.242 387.537C327.179 387.655 326.105 387.633 325.048 387.47Z" fill="#263238"/>
<path d="M318.883 389.244C321.822 390.473 324.838 391.51 327.91 392.349C327.232 393.302 326.25 393.995 325.126 394.318C324.002 394.64 322.802 394.572 321.722 394.124C317.73 392.438 318.883 389.244 318.883 389.244Z" fill="#FAFAFA"/>
<path d="M325.78 410.625C319.337 410.362 313.103 408.261 307.814 404.57C307.814 404.57 312.25 414.551 325.78 413.997V410.625Z" fill="#EB996E"/>
<path d="M315.488 345.793C315.488 345.793 320.457 355.397 318.327 362.628L340.086 368.24C340.086 368.24 345.032 340.714 315.488 345.793Z" fill="#263238"/>
<path d="M267.913 372.742C267.913 372.742 264.076 401.864 290.471 407.498L289.827 369.792L267.913 372.742Z" fill="#263238"/>
<path d="M317.418 336.921C319.668 336.7 321.939 336.972 324.072 337.72C329.406 339.204 334.225 342.133 337.999 346.184C341.772 350.235 344.352 355.251 345.454 360.676C346.037 362.846 346.143 365.116 345.764 367.33C345.498 367.33 345.476 364.757 344.411 360.831C343.092 355.709 340.514 350.997 336.912 347.124C333.31 343.251 328.797 340.338 323.784 338.651C319.947 337.387 317.396 337.165 317.418 336.921Z" fill="#263238"/>
<path d="M323.829 372.743C323.829 372.743 323.829 371.789 323.341 370.17C322.715 367.898 321.349 365.9 319.46 364.492C317.933 363.355 316.119 362.666 314.223 362.501C312.326 362.336 310.421 362.701 308.72 363.555C307.019 364.41 305.589 365.721 304.59 367.341C303.591 368.962 303.062 370.828 303.062 372.731C303.062 374.635 303.591 376.501 304.59 378.122C305.589 379.742 307.019 381.053 308.72 381.907C310.421 382.762 312.326 383.127 314.223 382.962C316.119 382.797 317.933 382.107 319.46 380.971C321.349 379.563 322.715 377.565 323.341 375.293C323.785 373.674 323.741 372.72 323.829 372.743C323.854 372.964 323.854 373.187 323.829 373.408C323.835 374.065 323.761 374.721 323.608 375.36C323.141 377.384 322.096 379.23 320.6 380.671C319.103 382.112 317.22 383.088 315.179 383.478C313.153 383.864 311.058 383.671 309.136 382.922C307.214 382.173 305.542 380.897 304.311 379.241C302.915 377.358 302.162 375.076 302.162 372.731C302.162 370.387 302.915 368.105 304.311 366.222C305.542 364.566 307.214 363.29 309.136 362.541C311.058 361.791 313.153 361.599 315.179 361.985C316.852 362.309 318.426 363.023 319.77 364.07C321.71 365.576 323.066 367.708 323.608 370.103C323.759 370.742 323.834 371.398 323.829 372.055C323.853 372.284 323.853 372.514 323.829 372.743Z" fill="#263238"/>
<path d="M348.382 372.743C348.382 372.743 348.382 371.789 347.916 370.17C347.289 367.898 345.924 365.9 344.035 364.492C342.936 363.676 341.687 363.085 340.359 362.755C339.031 362.425 337.65 362.361 336.297 362.567C334.944 362.773 333.646 363.245 332.476 363.956C331.307 364.668 330.29 365.603 329.485 366.71C328.269 368.373 327.581 370.363 327.509 372.422C327.438 374.482 327.985 376.515 329.082 378.259C330.179 380.003 331.774 381.378 333.661 382.206C335.547 383.033 337.639 383.276 339.665 382.901C341.272 382.632 342.792 381.986 344.101 381.016C345.99 379.607 347.356 377.609 347.983 375.338C348.404 373.718 348.36 372.765 348.449 372.787C348.482 373.007 348.482 373.232 348.449 373.452C348.454 374.11 348.38 374.765 348.227 375.404C347.737 377.411 346.685 379.236 345.194 380.666C343.704 382.096 341.837 383.072 339.812 383.479C337.787 383.887 335.688 383.708 333.761 382.966C331.834 382.223 330.158 380.946 328.93 379.286C327.535 377.402 326.781 375.12 326.781 372.776C326.781 370.432 327.535 368.15 328.93 366.266C330.207 364.505 331.997 363.181 334.054 362.473C335.892 361.804 337.879 361.65 339.798 362.03C341.464 362.358 343.029 363.072 344.367 364.115C346.312 365.62 347.676 367.751 348.227 370.148C348.379 370.787 348.453 371.442 348.449 372.099C348.455 372.316 348.433 372.532 348.382 372.743Z" fill="#263238"/>
<path d="M327.134 373.075C327.134 373.275 326.247 373.452 325.182 373.452C324.118 373.452 323.23 373.275 323.23 373.075C323.23 372.876 324.118 372.698 325.182 372.698C326.247 372.698 327.134 372.853 327.134 373.075Z" fill="#263238"/>
<path d="M303.003 374.96C299.945 375.941 296.816 376.682 293.643 377.178C290.531 377.926 287.364 378.423 284.172 378.664C287.222 377.681 290.344 376.94 293.51 376.446C296.631 375.708 299.805 375.211 303.003 374.96Z" fill="#263238"/>
<path d="M288.342 390.929C287.233 391.608 285.923 391.884 284.635 391.71C283.346 391.536 282.156 390.924 281.266 389.976C280.411 388.988 279.801 387.812 279.485 386.544C279.169 385.277 279.156 383.952 279.448 382.679C279.655 381.115 280.448 379.688 281.666 378.686C282.631 378.242 283.691 378.044 284.752 378.11C285.812 378.176 286.84 378.503 287.743 379.063L288.342 390.929Z" fill="#FFBE9D"/>
<path d="M285.302 388.734C285.302 388.557 284.614 388.446 283.815 387.869C283.311 387.507 282.909 387.021 282.648 386.457C282.388 385.894 282.278 385.272 282.329 384.653C282.384 384.032 282.603 383.437 282.966 382.929C283.329 382.422 283.822 382.022 284.392 381.77C285.279 381.326 285.989 381.348 285.989 381.171C285.989 380.994 285.301 380.683 284.104 380.994C283.318 381.226 282.619 381.689 282.098 382.322C281.577 382.955 281.258 383.73 281.182 384.546C281.106 385.362 281.275 386.183 281.67 386.902C282.064 387.621 282.665 388.205 283.394 388.579C284.525 389.089 285.302 388.89 285.302 388.734Z" fill="#EB996E"/>
<path d="M261.326 562.936C261.326 562.936 237.527 587.644 242.429 640.566C247.331 693.487 253.763 764.352 253.763 764.352C253.763 764.352 284.371 736.738 299.919 748.538C315.468 760.338 330.971 769.986 351.266 757.188C378.947 739.666 409.289 751.244 409.289 751.244L360.493 576.266L261.326 562.936Z" fill="#263238"/>
<path d="M292.244 569.168C292.311 570.966 291.969 572.755 291.246 574.402C289.742 578.506 287.066 582.077 283.549 584.672C280.014 587.229 275.799 588.681 271.439 588.842C269.652 589.029 267.845 588.802 266.16 588.176C266.16 587.977 268.179 588.354 271.372 588.043C275.527 587.678 279.504 586.186 282.873 583.727C286.242 581.269 288.876 577.937 290.492 574.092C291.756 571.209 292.044 569.168 292.244 569.168Z" fill="#455A64"/>
<path d="M270.996 569.9C270.685 569.79 270.84 568.548 271.35 567.084C271.861 565.62 272.482 564.555 272.792 564.644C273.103 564.733 272.925 566.019 272.437 567.461C271.949 568.902 271.284 569.989 270.996 569.9Z" fill="#455A64"/>
<path d="M265.74 590.772C265.547 588.955 265.744 587.118 266.316 585.382C266.521 583.574 267.103 581.828 268.024 580.259C268.205 582.069 268.008 583.896 267.448 585.626C267.248 587.443 266.666 589.197 265.74 590.772Z" fill="#455A64"/>
<path d="M263.012 612.131C262.594 608.525 262.957 604.871 264.076 601.418C264.447 603.203 264.447 605.045 264.076 606.83C264.104 608.653 263.741 610.46 263.012 612.131Z" fill="#455A64"/>
<path d="M262.479 633.668C261.917 631.931 261.728 630.094 261.925 628.278C261.729 626.461 261.925 624.623 262.502 622.889C263.062 624.627 263.258 626.461 263.078 628.278C263.272 630.097 263.067 631.936 262.479 633.668Z" fill="#455A64"/>
<path d="M263.809 655.182C263.115 653.495 262.776 651.683 262.811 649.859C262.466 648.067 262.511 646.221 262.944 644.447C263.647 646.124 263.987 647.931 263.943 649.748C264.273 651.549 264.227 653.399 263.809 655.182Z" fill="#455A64"/>
<path d="M266.538 676.564C265.722 674.92 265.268 673.119 265.207 671.285C264.768 669.513 264.708 667.669 265.029 665.873C265.829 667.515 266.282 669.305 266.36 671.13C266.785 672.911 266.845 674.759 266.538 676.564Z" fill="#455A64"/>
<path d="M270.464 697.813C269.552 696.228 268.992 694.465 268.823 692.645C268.293 690.9 268.127 689.066 268.335 687.255C269.807 690.58 270.562 694.177 270.553 697.813H270.464Z" fill="#455A64"/>
<path d="M275.343 718.706C274.387 717.152 273.768 715.414 273.524 713.605C272.911 711.886 272.669 710.057 272.815 708.237C273.77 709.792 274.39 711.53 274.633 713.339C275.248 715.057 275.49 716.887 275.343 718.706Z" fill="#455A64"/>
<path d="M279.336 734.521C279.025 734.521 278.471 733.456 278.093 731.97C277.716 730.484 277.65 729.22 277.96 729.153C278.271 729.087 278.825 730.218 279.202 731.704C279.58 733.19 279.646 734.454 279.336 734.521Z" fill="#455A64"/>
<path d="M334.497 617.964C334.023 615.774 333.726 613.548 333.61 611.31C333.189 607.185 332.634 601.506 332.191 595.207C331.747 588.908 331.525 583.208 331.525 579.06C331.425 576.837 331.529 574.61 331.836 572.406C332.189 574.606 332.36 576.832 332.346 579.06C332.546 583.186 332.878 588.864 333.344 595.163C333.81 601.462 334.209 607.14 334.409 611.266C334.643 613.491 334.673 615.733 334.497 617.964Z" fill="#455A64"/>
<path d="M338.18 573.449C338.628 575.716 338.888 578.016 338.956 580.325C339.311 584.561 339.688 590.417 340.043 596.916C340.198 600.132 340.354 603.215 340.487 606.054C340.763 608.605 340.483 611.185 339.666 613.617C339.049 615.281 337.863 616.672 336.317 617.543C335.208 618.098 334.498 618.075 334.498 618.009C334.498 617.942 335.141 617.787 336.095 617.166C337.412 616.212 338.397 614.871 338.912 613.329C339.554 610.983 339.728 608.533 339.422 606.12C339.267 603.259 339.067 600.198 338.89 596.982C338.535 590.483 338.269 584.606 338.158 580.369C337.974 578.066 337.981 575.751 338.18 573.449Z" fill="#455A64"/>
<path d="M365.704 594.897C364.374 594.914 363.062 594.593 361.889 593.966C358.946 592.693 356.357 590.721 354.348 588.221C352.337 585.717 350.96 582.765 350.333 579.615C350.024 578.325 350.024 576.98 350.333 575.689C350.711 576.92 351.015 578.171 351.243 579.438C352.045 582.376 353.444 585.117 355.352 587.49C357.26 589.864 359.636 591.819 362.333 593.234C363.483 593.732 364.608 594.288 365.704 594.897Z" fill="#455A64"/>
<path d="M408.491 739.488C407.932 739.467 407.375 739.4 406.827 739.289L402.059 738.557C396.181 737.683 390.255 737.172 384.315 737.026C375.576 736.782 366.853 737.89 358.453 740.309C353.728 741.662 349.071 743.924 344.014 745.92C341.431 746.941 338.747 747.685 336.007 748.138C333.132 748.611 330.189 748.46 327.379 747.695C321.678 746.12 317.087 742.66 312.429 740.087C307.936 737.621 303.076 735.891 298.034 734.964C293.457 734.121 288.789 733.882 284.15 734.254C280.114 734.649 276.13 735.459 272.261 736.671C266.659 738.5 261.409 741.267 256.735 744.856C255.45 745.811 254.227 746.848 253.076 747.961C252.676 748.363 252.246 748.734 251.789 749.07C252.12 748.61 252.499 748.186 252.92 747.806C254.006 746.612 255.186 745.507 256.447 744.501C261.069 740.731 266.327 737.817 271.973 735.895C275.885 734.608 279.922 733.738 284.017 733.3C288.74 732.889 293.496 733.09 298.167 733.899C303.341 734.825 308.33 736.585 312.939 739.111C317.686 741.706 322.233 745.1 327.645 746.586C333.057 748.072 338.735 746.697 343.57 744.789C348.405 742.882 353.285 740.575 358.12 739.222C366.626 736.818 375.46 735.778 384.292 736.139C390.244 736.363 396.173 737 402.036 738.047C404.099 738.424 405.696 738.734 406.783 739C407.371 739.089 407.945 739.253 408.491 739.488Z" fill="#455A64"/>
<path d="M420.69 540.756C425.991 539.603 436.083 535.455 436.216 534.102C436.637 531.573 427.344 534.546 424.749 535.056C422.154 535.566 408.313 533.06 408.313 533.06C404.92 531.174 401.659 529.2 398.953 527.603C397.737 526.412 396.883 524.901 396.49 523.244C396.097 521.588 396.183 519.854 396.735 518.243C398.066 514.317 398.155 511.035 397.467 509.793C397.185 509.394 396.786 509.092 396.326 508.929C395.865 508.765 395.366 508.748 394.895 508.879C394.424 509.01 394.005 509.283 393.696 509.661C393.386 510.039 393.2 510.503 393.164 510.99C392.575 513.474 391.641 515.863 390.392 518.088C389.43 519.949 388.163 521.636 386.644 523.079C384.958 524.653 383.45 525.94 382.208 527.004C370.452 529.111 337.093 533.88 307.816 526.406C304.156 524.777 300.984 522.224 298.611 518.997L265.674 538.826C280.956 587.312 392.1 555.994 392.1 555.994L422.553 545.68C422.553 545.68 439.498 541.532 439.498 540.091C439.587 537.806 427.055 540.667 420.69 540.756Z" fill="#FFBE9D"/>
<path d="M325.825 424.843C325.95 425.577 325.95 426.327 325.825 427.061C325.528 429.179 324.899 431.237 323.962 433.16C322.593 436.046 320.537 438.552 317.974 440.457C314.777 442.817 310.847 443.964 306.884 443.696C302.936 443.489 299.182 441.922 296.26 439.26C293.918 437.08 292.131 434.373 291.047 431.364C290.308 429.363 289.882 427.261 289.783 425.131C289.718 424.388 289.77 423.64 289.938 422.913C290.213 425.732 290.846 428.505 291.824 431.164C292.957 433.99 294.717 436.523 296.969 438.572C299.735 441.055 303.262 442.525 306.972 442.742C310.673 442.984 314.344 441.951 317.375 439.814C319.833 438.019 321.844 435.681 323.253 432.983C324.486 430.403 325.352 427.663 325.825 424.843Z" fill="#263238"/>
</svg>
