<svg width="113" height="100" viewBox="0 0 113 100" fill="none" xmlns="http://www.w3.org/2000/svg">
<path d="M109.951 41.875H3.0512C1.5212 41.875 0.415781 43.3383 0.833967 44.81L16.04 98.3253C16.3216 99.3165 17.2268 100 18.2572 100H95.353C96.3924 100 97.3032 99.3047 97.5768 98.3019L112.175 44.7866C112.575 43.3203 111.471 41.875 109.951 41.875Z" fill="#4D8733"/>
<path d="M14.1402 24.4911L21.9717 33H93.4142L99.7494 24.2855C100.857 22.7619 99.7687 20.6251 97.885 20.6251H15.8362C13.8284 20.6251 12.7805 23.0138 14.1402 24.4911Z" fill="#4D8733"/>
<path d="M29.6791 1.81075L35.7251 10.5H74.8484L82.7805 1.93564C83.4638 1.19785 82.9406 0 81.9349 0H30.6252C29.6942 0 29.1474 1.04661 29.6791 1.81075Z" fill="#4D8733"/>
<path d="M35.0195 59.9961H78.6215" stroke="white" stroke-width="6.01307" stroke-linecap="round"/>
</svg>
